# xmcd
#
# Track frame offsets: 
#        150
#        27291
#        41532
#        55676
#        74281
#        88615
#        103969
#        122233
#        140012
#        158090
#        170988
#        186963
#        203240
#        220485
#
# Disc length: 3149 seconds
#
# Revision: 7
# Processed by: cddbd v1.5.2PL0 Copyright (c) Steve Scherf et al.
# Submitted via: ExactAudioCopy v0.99pb5
#
DISCID=d60c4b0e
DTITLE=蔡琴 - 銀色月光下
DYEAR=2004
DGENRE=Folk
TTITLE0=在那遙遠的地方
TTITLE1=在那銀色的月光下
TTITLE2=可愛的一朵玫瑰花
TTITLE3=花針引線線穿針
TTITLE4=茉莉花
TTITLE5=鄉戀
TTITLE6=彎彎的月亮
TTITLE7=走西口
TTITLE8=敖包相會
TTITLE9=康定情歌
TTITLE10=康定情歌＋青春舞曲
TTITLE11=歌聲與微笑  (慶典版)
TTITLE12=歌聲與微笑  (流浪版)
TTITLE13=幾度花落時  (彩雲追月)
EXTD=YEAR: 2004
EXTT0=在那遙遠的地方
EXTT1=
EXTT2=
EXTT3=
EXTT4=
EXTT5=
EXTT6=
EXTT7=
EXTT8=
EXTT9=
EXTT10=
EXTT11=
EXTT12=
EXTT13=
PLAYORDER=
